<svg xmlns="http://www.w3.org/2000/svg" viewBox="0 0 32 32" width="32" height="32">
  <circle cx="16" cy="16" r="16" fill="#26A17B"/>
  <path fill="#fff" d="M17.9 17.4v-.01c-.11.01-.68.05-1.95.05-1.01 0-1.72-.03-1.97-.05v.01c-3.9-.17-6.8-.85-6.8-1.66 0-.81 2.9-1.49 6.8-1.66v2.65c.26.02.99.06 1.99.06 1.21 0 1.82-.05 1.93-.06v-2.65c3.89.17 6.78.85 6.78 1.66 0 .81-2.89 1.49-6.78 1.66zm0-3.59v-2.37h5.43V7.82H8.67v3.62h5.43v2.37c-4.41.2-7.73 1.08-7.73 2.12 0 1.05 3.32 1.92 7.73 2.13v7.59h3.8v-7.59c4.4-.2 7.71-1.08 7.71-2.12 0-1.05-3.31-1.92-7.71-2.13z"/>
</svg>
